<svg width="206" height="62" viewBox="0 0 206 62" fill="none" xmlns="http://www.w3.org/2000/svg">
<path d="M80.8311 53.6222C82.0473 53.3242 83.2505 52.8417 84.4732 52.7566C95.2823 52.047 106.124 51.7135 116.901 50.6563C125.342 49.8262 133.732 48.2723 142.109 46.7822C151.721 45.0722 161.392 43.5538 170.849 41.0917C179.472 38.8425 188.194 36.5365 196.044 31.6619C197.013 31.0588 197.969 30.4344 198.899 29.7675C203.959 26.1204 202.691 21.629 198.996 18.2729C194.229 13.9447 188.35 12.1779 182.438 10.6311C171.2 7.68655 159.773 6.16813 148.261 5.23864C128.692 3.66346 109.129 3.45769 89.5265 4.55038C72.3958 5.50117 55.4407 7.82846 38.6287 11.3975C29.8813 13.2564 21.2119 15.6192 13.1928 19.9971C10.5328 21.4516 8.04841 23.4809 5.83065 25.6663C3.0861 28.3768 3.28121 31.8464 5.82415 34.8407C10.0711 39.8429 15.6902 42.4044 21.2249 45.0439C31.5267 49.9539 42.3033 53.31 53.2815 55.8076C59.5706 57.2338 65.9637 58.0994 72.2983 59.263C73.8396 59.5469 75.355 59.9939 77.0004 60.3983C69.4301 63.5132 62.0029 61.3491 54.6473 60.0577C44.2804 58.2342 34.1282 55.3677 24.3791 51.0182C16.9975 47.7259 9.75237 44.1073 3.72346 38.2536C-2.09733 32.5985 -0.568968 25.2902 4.69251 20.7705C12.3603 14.1788 21.6086 11.3336 30.9934 9.11273C36.0533 7.91361 41.1196 6.73577 46.2185 5.7637C51.3044 4.79872 56.4228 4.05371 61.5412 3.34416C62.7899 3.16678 64.0971 3.49317 64.806 3.54284C66.3734 3.18097 67.466 2.93263 68.5521 2.6701C70.2041 2.27986 72.0641 2.31533 73.56 2.29405C75.7712 2.25857 78.015 0.435053 80.4474 2.09538C81.3644 2.71977 83.1594 1.71932 84.5642 1.5916C88.1542 1.25812 91.7508 0.974295 95.3473 0.711765C99.204 0.435044 103.067 0.0731785 106.93 0.0022245C109.252 -0.0403479 111.574 0.54148 113.902 0.605338C115.652 0.655006 117.408 0.172524 119.157 0.200906C122.012 0.243478 124.861 0.591146 127.716 0.647909C129.537 0.683386 131.501 -0.118391 133.16 0.385382C137.511 1.69803 141.894 0.960114 146.245 1.26522C151.559 1.63418 156.879 2.14504 162.16 2.90425C173.99 4.60005 185.885 6.16814 196.818 11.9154C198.931 13.0294 200.98 14.5691 202.639 16.3713C207.946 22.1541 206.807 29.8739 200.362 34.0673C191.699 39.701 182.217 42.8727 172.448 44.9942C159.916 47.7188 147.292 49.961 134.734 52.5579C122.975 54.9916 111.119 56.1624 99.1715 56.0772C93.6564 56.0346 88.1477 55.3393 82.6326 54.8923C82.0408 54.8426 81.475 54.4807 80.8961 54.2608C80.8766 54.0479 80.8571 53.8351 80.8376 53.6222H80.8311Z" fill="#C8453B"/>
</svg>
